# xmcd CD database file
#
# Track frame offsets:
#	225
#	35487
#	60632
#	94583
#	111158
#	136058
#	154461
#	178765
#
# Disc length: 2660 seconds
#
# Revision: 0
# Processed by: cddbd v1.5.2PL0 Copyright (c) Steve Scherf et al.
# Submitted via: CDex 1.70beta2
#
DISCID=680a6108
DTITLE=Faxtet - Selavì
DYEAR=2001
DGENRE=Jazz
TTITLE0=Lorença
TTITLE1=Lismore
TTITLE2=Into the LIght
TTITLE3=Fly, Art, Fly
TTITLE4=Tir
TTITLE5=Lou "Easy" Ann
TTITLE6=September Section Song
TTITLE7=Freedom for Us
EXTD=YEAR: 2001
EXTT0=
EXTT1=
EXTT2=
EXTT3=
EXTT4=
EXTT5=
EXTT6=
EXTT7=
PLAYORDER=
